<svg xmlns="http://www.w3.org/2000/svg" xmlns:xlink="http://www.w3.org/1999/xlink" id="Calque_2" x="0px" y="0px" viewBox="0 0 449.4 145.3" style="enable-background:new 0 0 449.4 145.3;" xml:space="preserve"><style type="text/css">	.st0{fill:#FFFFFF;}</style><g>	<path class="st0" d="M101.1,93.9c-0.3,0.6-0.7,1.1-1.2,1.5c-0.5,0.4-1.1,0.7-1.8,0.9c-0.7,0.2-1.4,0.3-2.2,0.3h-2.8v4.6h-2.4V87  h5.5c0.8,0,1.5,0.1,2.2,0.3c0.7,0.2,1.2,0.5,1.7,1c0.5,0.4,0.8,0.9,1.1,1.5c0.2,0.6,0.4,1.2,0.4,2  C101.6,92.6,101.4,93.3,101.1,93.9 M98.2,89.9c-0.5-0.4-1.3-0.6-2.2-0.6h-2.9v5.1H96c0.9,0,1.7-0.2,2.2-0.7  c0.5-0.5,0.8-1.1,0.8-1.9C99.1,91,98.8,90.3,98.2,89.9"></path>	<path class="st0" d="M113,101.2l-3.4-5h-3.1v5h-2.4V87h6.2c0.8,0,1.5,0.1,2.2,0.3c0.6,0.2,1.2,0.5,1.6,0.9c0.4,0.4,0.8,0.9,1,1.4  c0.2,0.6,0.4,1.2,0.4,1.9c0,0.6-0.1,1.1-0.2,1.6c-0.2,0.5-0.4,0.9-0.7,1.2c-0.3,0.4-0.6,0.7-1,0.9c-0.4,0.3-0.9,0.4-1.3,0.6  l3.8,5.4H113z M112.2,89.9c-0.5-0.4-1.2-0.6-2.1-0.6h-3.6v4.8h3.6c0.9,0,1.6-0.2,2.1-0.7c0.5-0.4,0.8-1,0.8-1.8  C113,90.9,112.7,90.3,112.2,89.9"></path>	<path class="st0" d="M132,96.9c-0.4,0.9-0.9,1.7-1.5,2.3c-0.7,0.7-1.4,1.2-2.3,1.6c-0.9,0.4-1.9,0.6-3,0.6c-1.1,0-2.1-0.2-3-0.6  c-0.9-0.4-1.7-0.9-2.3-1.6c-0.6-0.7-1.1-1.4-1.5-2.3c-0.4-0.9-0.5-1.8-0.5-2.8c0-1,0.2-2,0.5-2.8c0.4-0.9,0.9-1.7,1.5-2.3  c0.7-0.7,1.4-1.2,2.3-1.6c0.9-0.4,1.9-0.6,3-0.6c1.1,0,2.1,0.2,3,0.6c0.9,0.4,1.7,0.9,2.3,1.6c0.6,0.7,1.1,1.4,1.5,2.3  c0.4,0.9,0.5,1.8,0.5,2.8C132.5,95.1,132.3,96,132,96.9 M129.6,92.2c-0.2-0.6-0.6-1.2-1-1.6c-0.4-0.5-0.9-0.8-1.5-1.1  c-0.6-0.3-1.2-0.4-1.9-0.4c-0.7,0-1.3,0.1-1.9,0.4c-0.6,0.3-1.1,0.6-1.5,1.1c-0.4,0.5-0.7,1-1,1.6c-0.2,0.6-0.3,1.3-0.3,2  c0,0.7,0.1,1.3,0.3,2c0.2,0.6,0.6,1.2,1,1.6c0.4,0.5,0.9,0.8,1.5,1.1c0.6,0.3,1.2,0.4,1.9,0.4c0.7,0,1.3-0.1,1.9-0.4  c0.6-0.3,1.1-0.6,1.5-1.1c0.4-0.5,0.7-1,1-1.6c0.2-0.6,0.3-1.3,0.3-2C129.9,93.4,129.8,92.8,129.6,92.2"></path>	<polygon class="st0" points="140.6,101.2 138.1,101.2 138.1,89.3 133.7,89.3 133.7,87 145.1,87 145.1,89.3 140.6,89.3  "></polygon>	<polygon class="st0" points="158,89.3 150.1,89.3 150.1,92.9 157.1,92.9 157.1,95.2 150.1,95.2 150.1,99 158.1,99 158.1,101.2   147.6,101.2 147.6,87 158,87  "></polygon>	<path class="st0" d="M172,100c-0.4,0.3-0.8,0.6-1.3,0.8c-0.5,0.2-1,0.4-1.5,0.5c-0.5,0.1-1.1,0.2-1.8,0.2c-1,0-2-0.2-2.8-0.6  c-0.9-0.4-1.6-0.9-2.2-1.6c-0.6-0.7-1.1-1.4-1.5-2.3c-0.4-0.9-0.5-1.9-0.5-2.9c0-1,0.2-2,0.5-2.9c0.3-0.9,0.8-1.7,1.5-2.4  c0.6-0.7,1.4-1.2,2.3-1.6c0.9-0.4,1.8-0.6,2.9-0.6c0.6,0,1.2,0.1,1.7,0.2c0.5,0.1,1,0.3,1.4,0.5c0.4,0.2,0.8,0.4,1.2,0.7  c0.4,0.3,0.7,0.6,1.1,0.9l-1.6,1.8c-0.6-0.5-1.1-1-1.8-1.3c-0.6-0.3-1.3-0.5-2.1-0.5c-0.7,0-1.3,0.1-1.8,0.4  c-0.6,0.3-1.1,0.6-1.5,1.1c-0.4,0.5-0.7,1-1,1.6c-0.2,0.6-0.3,1.3-0.3,2c0,0.7,0.1,1.4,0.3,2c0.2,0.6,0.5,1.2,1,1.6  c0.4,0.5,0.9,0.8,1.5,1.1c0.6,0.3,1.2,0.4,1.8,0.4c0.9,0,1.6-0.2,2.2-0.5c0.6-0.3,1.2-0.8,1.8-1.4l1.6,1.6  C172.8,99.3,172.4,99.7,172,100"></path>	<polygon class="st0" points="181.7,101.2 179.2,101.2 179.2,89.3 174.8,89.3 174.8,87 186.1,87 186.1,89.3 181.7,89.3  "></polygon>	<polygon class="st0" points="201.3,101.2 198.8,101.2 198.8,95.6 193.2,87 196.1,87 200,93.3 204,87 206.8,87 201.3,95.6  "></polygon>	<path class="st0" d="M221.2,96.9c-0.4,0.9-0.9,1.7-1.5,2.3c-0.7,0.7-1.4,1.2-2.3,1.6c-0.9,0.4-1.9,0.6-3,0.6c-1.1,0-2.1-0.2-3-0.6  c-0.9-0.4-1.7-0.9-2.3-1.6c-0.6-0.7-1.1-1.4-1.5-2.3c-0.4-0.9-0.5-1.8-0.5-2.8c0-1,0.2-2,0.5-2.8c0.4-0.9,0.9-1.7,1.5-2.3  c0.7-0.7,1.4-1.2,2.3-1.6c0.9-0.4,1.9-0.6,3-0.6c1.1,0,2.1,0.2,3,0.6c0.9,0.4,1.7,0.9,2.3,1.6c0.6,0.7,1.1,1.4,1.5,2.3  c0.4,0.9,0.5,1.8,0.5,2.8C221.8,95.1,221.6,96,221.2,96.9 M218.8,92.2c-0.2-0.6-0.6-1.2-1-1.6c-0.4-0.5-0.9-0.8-1.5-1.1  c-0.6-0.3-1.2-0.4-1.9-0.4c-0.7,0-1.3,0.1-1.9,0.4c-0.6,0.3-1.1,0.6-1.5,1.1c-0.4,0.5-0.7,1-1,1.6c-0.2,0.6-0.3,1.3-0.3,2  c0,0.7,0.1,1.3,0.3,2c0.2,0.6,0.6,1.2,1,1.6c0.4,0.5,0.9,0.8,1.5,1.1c0.6,0.3,1.2,0.4,1.9,0.4c0.7,0,1.3-0.1,1.9-0.4  c0.6-0.3,1.1-0.6,1.5-1.1c0.4-0.5,0.7-1,1-1.6c0.2-0.6,0.4-1.3,0.4-2C219.2,93.4,219.1,92.8,218.8,92.2"></path>	<path class="st0" d="M236.5,95.1c0,1.1-0.1,2-0.4,2.8c-0.3,0.8-0.7,1.5-1.2,2c-0.5,0.5-1.1,0.9-1.9,1.2c-0.7,0.3-1.6,0.4-2.5,0.4  c-0.9,0-1.7-0.1-2.5-0.4c-0.7-0.3-1.4-0.7-1.9-1.2c-0.5-0.5-0.9-1.2-1.2-2c-0.3-0.8-0.4-1.7-0.4-2.7V87h2.4v8.1  c0,1.3,0.3,2.3,0.9,3c0.6,0.7,1.5,1,2.6,1c1.1,0,2-0.3,2.6-1c0.6-0.7,0.9-1.7,0.9-3V87h2.4V95.1z"></path>	<path class="st0" d="M248.8,101.2l-3.4-5h-3.1v5h-2.4V87h6.2c0.8,0,1.5,0.1,2.2,0.3c0.6,0.2,1.2,0.5,1.6,0.9c0.4,0.4,0.8,0.9,1,1.4  c0.2,0.6,0.4,1.2,0.4,1.9c0,0.6-0.1,1.1-0.2,1.6c-0.2,0.5-0.4,0.9-0.7,1.2c-0.3,0.4-0.6,0.7-1,0.9c-0.4,0.3-0.9,0.4-1.3,0.6  l3.8,5.4H248.8z M248,89.9c-0.5-0.4-1.2-0.6-2.1-0.6h-3.6v4.8h3.6c0.9,0,1.6-0.2,2.1-0.7c0.5-0.4,0.8-1,0.8-1.8  C248.8,90.9,248.5,90.3,248,89.9"></path>	<polygon class="st0" points="270.6,89.3 262.7,89.3 262.7,93.2 269.8,93.2 269.8,95.4 262.7,95.4 262.7,101.2 260.3,101.2   260.3,87 270.6,87  "></polygon>	<path class="st0" d="M285.1,95.1c0,1.1-0.1,2-0.4,2.8c-0.3,0.8-0.7,1.5-1.2,2c-0.5,0.5-1.1,0.9-1.9,1.2c-0.7,0.3-1.6,0.4-2.5,0.4  c-0.9,0-1.7-0.1-2.5-0.4c-0.7-0.3-1.4-0.7-1.9-1.2c-0.5-0.5-0.9-1.2-1.2-2c-0.3-0.8-0.4-1.7-0.4-2.7V87h2.4v8.1  c0,1.3,0.3,2.3,0.9,3c0.6,0.7,1.5,1,2.6,1c1.1,0,2-0.3,2.6-1c0.6-0.7,0.9-1.7,0.9-3V87h2.4V95.1z"></path>	<polygon class="st0" points="294.4,101.2 291.9,101.2 291.9,89.3 287.5,89.3 287.5,87 298.8,87 298.8,89.3 294.4,89.3  "></polygon>	<path class="st0" d="M313.1,95.1c0,1.1-0.1,2-0.4,2.8c-0.3,0.8-0.7,1.5-1.2,2c-0.5,0.5-1.1,0.9-1.9,1.2c-0.7,0.3-1.6,0.4-2.5,0.4  c-0.9,0-1.7-0.1-2.5-0.4c-0.7-0.3-1.4-0.7-1.9-1.2c-0.5-0.5-0.9-1.2-1.2-2c-0.3-0.8-0.4-1.7-0.4-2.7V87h2.4v8.1  c0,1.3,0.3,2.3,0.9,3c0.6,0.7,1.5,1,2.6,1c1.1,0,2-0.3,2.6-1c0.6-0.7,0.9-1.7,0.9-3V87h2.4V95.1z"></path>	<path class="st0" d="M325.5,101.2l-3.4-5H319v5h-2.4V87h6.2c0.8,0,1.5,0.1,2.2,0.3c0.6,0.2,1.2,0.5,1.6,0.9c0.4,0.4,0.8,0.9,1,1.4  c0.2,0.6,0.4,1.2,0.4,1.9c0,0.6-0.1,1.1-0.2,1.6c-0.2,0.5-0.4,0.9-0.7,1.2c-0.3,0.4-0.6,0.7-1,0.9c-0.4,0.3-0.9,0.4-1.3,0.6  l3.8,5.4H325.5z M324.7,89.9c-0.5-0.4-1.2-0.6-2.1-0.6H319v4.8h3.6c0.9,0,1.6-0.2,2.1-0.7c0.5-0.4,0.8-1,0.8-1.8  C325.4,90.9,325.2,90.3,324.7,89.9"></path>	<polygon class="st0" points="341.3,89.3 333.4,89.3 333.4,92.9 340.4,92.9 340.4,95.2 333.4,95.2 333.4,99 341.4,99 341.4,101.2   331,101.2 331,87 341.3,87  "></polygon>	<polygon class="st0" points="117.8,52.1 117.8,46.8 90.7,46.8 90.7,72.8 117.8,72.8 117.8,67.5 97.3,67.5 97.3,62.2 117.8,62.2   117.8,57.3 97.3,57.3 97.3,52.1  "></polygon>	<path class="st0" d="M149.7,46.8v12.9c0,3.7-1,7.8-9.5,7.8c-8.5,0-9.5-4.2-9.5-7.8V46.8h-6.5v12.9c0,9.1,4.8,13.5,16,13.5  c11.2,0,16-4.4,16-13.5V46.8H149.7z"></path>	<path class="st0" d="M192.6,56.3c0-5.8-4-9.5-9.8-9.5h-20.1v26h6.5v-7h10.6l4.1,7h7.7l-4.7-7.8C190.4,63.7,192.6,60.5,192.6,56.3   M181,60.2h-11.7v-7.9H181c2,0,5,0,5,4C186,60.2,183,60.2,181,60.2"></path>	<path class="st0" d="M214.1,46.4c-11.3,0-16.1,4.7-16.1,13.3c0,8.7,4.8,13.5,16.1,13.5c11.2,0,16-4.8,16-13.5  C230.1,51.1,225.3,46.4,214.1,46.4 M214.1,67.5c-6.9,0-9.5-2.4-9.5-7.8c0-5.3,2.6-7.7,9.5-7.7c6.9,0,9.4,2.4,9.4,7.7  C223.5,65,220.9,67.5,214.1,67.5"></path>	<path class="st0" d="M252.7,57.1c-7.5-0.4-9-0.8-9-2.8c0-1.9,1.5-2.6,8-2.6c6.9,0,9.6,0.7,9.6,3.6h6.6c0-6.5-5.9-8.9-15.5-8.9  c-9.6,0-15.3,1.8-15.3,7.6c0,5.8,4.4,7.6,15.5,8.1c8.3,0.4,9.8,0.8,9.8,2.9c0,2.1-2.1,2.8-9,2.8c-8.3,0-10.5-1.3-10.5-4h-6.6  c0,7.5,6.3,9.4,16.7,9.4c9.4,0,15.9-1.4,15.9-8.4C269,58.2,262.7,57.7,252.7,57.1"></path>	<path class="st0" d="M294.3,46.8h-8.9l-13.1,26h7.2l2.7-5.5h15.3l2.8,5.5h7.2L294.3,46.8z M284.6,62.3l5.2-10.6l5.2,10.6H284.6z"></path>	<polygon class="st0" points="305.5,46.8 305.5,52.3 317.9,52.3 317.9,72.8 324.5,72.8 324.5,52.3 336.9,52.3 336.9,46.8  "></polygon>	<path class="st0" d="M357.2,46.4c-11.2,0-16,4.7-16,13.3c0,8.7,4.8,13.5,16,13.5c11.3,0,16.1-4.8,16.1-13.5  C373.3,51.1,368.4,46.4,357.2,46.4 M357.2,67.5c-6.8,0-9.5-2.4-9.5-7.8c0-5.3,2.6-7.7,9.5-7.7c6.9,0,9.5,2.4,9.5,7.7  C366.7,65,364,67.5,357.2,67.5"></path>	<path class="st0" d="M409.1,56.3c0-5.8-4-9.5-9.8-9.5h-20.1v26h6.5v-7h10.6l4.2,7h7.7l-4.7-7.8C407.1,63.7,409.1,60.5,409.1,56.3   M397.6,60.2h-11.7v-7.9h11.7c1.9,0,5,0,5,4C402.6,60.2,399.5,60.2,397.6,60.2"></path>	<polygon class="st0" points="439.1,46.8 429.3,58.6 419.4,46.8 411.5,46.8 426,64.3 426,72.8 432.5,72.8 432.5,64.3 447,46.8  "></polygon>	<path class="st0" d="M46.7,31.3C46.5,82.2,30,104.6,23,111.8C11.2,107.1,3,95.3,3,81.7V31.3H46.7z"></path>	<path class="st0" d="M56.2,106c-5.6,5.2-13,8.3-21.2,8.3c-1,0-2-0.1-2.9-0.1c1.4-1.8,3.1-3.9,4.7-6.4c4.5-1.3,9.3-2,14.1-2  C52.6,105.7,54.4,105.8,56.2,106"></path>	<path class="st0" d="M59.5,98c-2.9-0.4-5.8-0.6-8.7-0.6c-2.9,0-5.9,0.2-8.7,0.6c3.2-6.8,6.4-15.5,8.7-26.2  C53.1,82.5,56.2,91.1,59.5,98"></path>	<path class="st0" d="M66.9,31.3v50.4c0,3.4-0.5,6.6-1.4,9.6c-5.6-13-10.6-32.2-10.7-60H66.9z"></path></g></svg>